# xmcd
#
# Track frame offsets: 
#        150
#        2081
#        23328
#        26489
#        45859
#        50604
#        71926
#        77881
#        92553
#        97444
#        124149
#        127026
#        139827
#        144261
#        166031
#        176533
#        193986
#        202660
#        222751
#        229340
#        251542
#        254677
#
# Disc length: 3693 seconds
#
# Revision: 1
# Processed by: cddbd v1.5.2PL0 Copyright (c) Steve Scherf et al.
# Submitted via: ExactAudioCopyFreeDBPlugin 1.0
#
DISCID=350e6b16
DTITLE=ミドリカワ書房 - みんなのうた4"ever"
DYEAR=2010
DGENRE=J-ROCK
TTITLE0=～殿様食品『しっとり大名』TVCM　―「余はしっとりじゃ」篇―
TTITLE1=愛なるは
TTITLE2=～にょきにょき本気!?
TTITLE3=ミドシンを聴きながら
TTITLE4=～ギガビットパーセコンド
TTITLE5=大丈夫
TTITLE6=～北口の母
TTITLE7=自信があるんです
TTITLE8=～髑髏と蟷螂
TTITLE9=妹の日記
TTITLE10=～生クリーマー
TTITLE11=泊まっていけよ
TTITLE12=～どぶろくフィズ
TTITLE13=夢が叶った男
TTITLE14=～Takanori Makes 朝寝坊
TTITLE15=喧嘩口論
TTITLE16=～ドクターマウス氏による基調講演
TTITLE17=馬鹿姉妹
TTITLE18=～昼ドキ！五臓六腑 ＜阿実毛海岸＞
TTITLE19=転校生
TTITLE20=～特急ヒデリ29号
TTITLE21=さらばグッバイ
EXTD=
EXTT0=
EXTT1=
EXTT2=
EXTT3=
EXTT4=
EXTT5=
EXTT6=
EXTT7=
EXTT8=
EXTT9=
EXTT10=
EXTT11=
EXTT12=
EXTT13=
EXTT14=
EXTT15=
EXTT16=
EXTT17=
EXTT18=
EXTT19=
EXTT20=
EXTT21=
PLAYORDER=
